<?xml version="1.0" encoding="utf-8"?>
<!-- Generator: Adobe Illustrator 23.1.1, SVG Export Plug-In . SVG Version: 6.00 Build 0)  -->
<svg version="1.1" id="レイヤー_1" xmlns="http://www.w3.org/2000/svg" xmlns:xlink="http://www.w3.org/1999/xlink" x="0px"
	 y="0px" viewBox="0 0 129.3 70.3" style="enable-background:new 0 0 129.3 70.3;" xml:space="preserve">
<style type="text/css">
	.st0{enable-background:new    ;}
	.st1{fill:#E61815;}
	.st2{fill:#00C124;}
	.st3{fill:#02B8D1;}
</style>
<title>アセット 1</title>
<g class="st0">
	<path d="M4.6,32.3l-0.5,1c0,0.1-0.1,0.2-0.3,0.3c-0.1,0.1-0.2,0.1-0.3,0.1s-0.2,0-0.3-0.1c-0.1-0.1-0.1-0.2,0.1-0.3l1-2.3
		c0-0.1,0.2-0.3,0.3-0.3c0.1-0.1,0.2-0.1,0.3-0.1l7.3,0c0.1,0,0.2,0,0.3,0.1c0.1,0.1,0.1,0.2-0.1,0.3l-1,2.3c0,0.1-0.1,0.2-0.3,0.3
		c-0.1,0.1-0.2,0.1-0.3,0.1s-0.2,0-0.3-0.1c-0.1-0.1-0.1-0.2,0.1-0.3l0.5-1H8.3l-3.1,7.3h1c0.1,0,0.2,0.1,0.2,0.2
		c0,0.2-0.1,0.4-0.1,0.6c-0.1,0.2-0.2,0.4-0.4,0.6c0,0.2-0.3,0.3-0.4,0.3H2.7c-0.1,0-0.2-0.1-0.2-0.3c0-0.2,0.1-0.4,0.2-0.6
		c0.1-0.2,0.2-0.4,0.3-0.6c0.1-0.2,0.2-0.2,0.4-0.2l1,0l3.1-7.3C7.4,32.3,4.6,32.3,4.6,32.3z"/>
	<path d="M17.5,37.6c-0.5,1.1-1.1,2-2.1,2.8c-0.9,0.8-1.9,1.1-2.9,1.1s-1.6-0.4-2-1.1c-0.4-0.7-0.2-1.7,0.2-2.8
		c0.5-1.1,1.2-2.1,2.1-2.8c0.9-0.8,1.9-1.1,2.9-1.1c1,0,1.6,0.4,2,1.1C18.1,35.5,18,36.4,17.5,37.6z M16.7,37.6
		c0.3-0.7,0.2-1.2,0-1.7c-0.3-0.4-0.8-0.6-1.6-0.6c-0.8,0-1.5,0.2-2.1,0.7c-0.7,0.4-1.1,1-1.4,1.7c-0.3,0.7-0.3,1.2,0,1.6
		c0.3,0.4,0.9,0.6,1.6,0.6c0.8,0,1.4-0.2,2.1-0.6C16,38.8,16.5,38.3,16.7,37.6z"/>
	<path d="M20.1,35.4c-0.1,0-0.2-0.1-0.2-0.2c0-0.2,0.1-0.3,0.1-0.5s0.2-0.4,0.3-0.5c0.1-0.1,0.2-0.2,0.4-0.2l1.8,0l0.7-1.8
		c0-0.1,0.1-0.2,0.3-0.3c0.1-0.1,0.2-0.1,0.3-0.1c0.1,0,0.2,0,0.3,0.1c0.1,0.1,0.1,0.2-0.1,0.3l-0.7,1.7h2.5c0.1,0,0.2,0.1,0.2,0.2
		c0,0.1-0.1,0.3-0.1,0.5s-0.2,0.4-0.3,0.5c-0.1,0.2-0.2,0.2-0.3,0.2l-2.5,0L21.3,39c-0.1,0.2-0.1,0.4,0.1,0.6
		c0.2,0.2,0.4,0.2,0.7,0.2c0.3,0,0.5,0,0.7-0.1s0.5-0.2,0.8-0.4c0.1-0.1,0.2-0.1,0.3-0.2c0.1,0,0.2,0,0.2,0.1
		c0.1,0.1,0.1,0.1,0.1,0.2c0,0.1,0,0.2-0.2,0.4c-0.4,0.5-0.9,0.9-1.3,1.2c-0.6,0.3-1,0.5-1.4,0.5c-0.6,0-1-0.2-1.1-0.6
		c-0.2-0.4-0.1-0.9,0.1-1.5l1.7-4.1C21.9,35.4,20.1,35.4,20.1,35.4z"/>
	<path d="M31.6,36.4c0.2-0.4,0.1-0.7-0.1-0.9s-0.5-0.3-1-0.3c-0.4,0-0.8,0-1.1,0.1c-0.3,0.1-0.7,0.3-0.9,0.5
		c-0.1,0.1-0.2,0.1-0.3,0.1c-0.1,0-0.2,0-0.2-0.1c0-0.1-0.1-0.2,0-0.3c0-0.1,0-0.2,0.2-0.3c0.4-0.5,0.9-0.9,1.4-1.2
		c0.6-0.3,1.1-0.5,1.7-0.5c0.8,0,1.3,0.2,1.5,0.7c0.2,0.4,0.2,1-0.1,1.8L31,39.4c-0.1,0.2-0.1,0.4,0.1,0.4c0.2,0.1,0.4,0,0.7-0.2
		c0.1-0.1,0.2-0.1,0.3-0.1s0.2,0,0.2,0.1c0,0.1,0.1,0.1,0.1,0.2c0,0.1-0.1,0.2-0.2,0.3c-0.4,0.3-0.6,0.6-0.9,0.8
		c-0.3,0.2-0.7,0.3-0.8,0.2c-0.2-0.1-0.4-0.2-0.4-0.4s0-0.4,0-0.6c-0.6,0.4-1,0.7-1.6,0.9s-1.1,0.3-1.5,0.3c-0.6,0-1-0.2-1.2-0.4
		c-0.2-0.3-0.4-0.7-0.2-1.2c0.1-0.6,0.5-1.2,1-1.7c0.5-0.5,1.1-0.8,1.8-1.1c0.5-0.2,1.1-0.3,1.5-0.4C30.1,36.6,30.8,36.5,31.6,36.4z
		 M31.3,37.2c-0.6,0-1.1,0.1-1.6,0.2c-0.5,0.1-0.9,0.2-1.5,0.4c-0.4,0.1-0.8,0.3-1.1,0.5c-0.2,0.2-0.5,0.5-0.6,0.7
		c-0.2,0.3-0.1,0.5,0.1,0.6s0.5,0.2,0.9,0.2c0.5,0,0.9-0.1,1.4-0.2c0.5-0.1,1-0.3,1.4-0.6L31.3,37.2z"/>
	<path d="M39.2,31.4h-1.1c-0.1,0-0.2-0.1-0.2-0.2c0-0.2,0.1-0.3,0.1-0.5c0-0.2,0.2-0.4,0.3-0.5c0.1-0.1,0.2-0.2,0.4-0.2l1.5,0
		c0.1,0,0.2,0,0.3,0.1c0,0.1,0.1,0.2-0.1,0.3l-3.9,9.5h1.4c0.1,0,0.2,0.1,0.2,0.2c0,0.1-0.1,0.3-0.1,0.5c0,0.2-0.2,0.4-0.3,0.5
		c-0.1,0.2-0.2,0.2-0.3,0.2h-3.5c-0.1,0-0.2-0.1-0.2-0.2c0-0.2,0.1-0.3,0.1-0.5s0.2-0.4,0.3-0.5c0.1-0.1,0.2-0.2,0.4-0.2h1.3
		L39.2,31.4z"/>
	<path d="M43.9,41.4c-0.1,0-0.2-0.1-0.2-0.2c0-0.2,0.1-0.3,0.1-0.5c0-0.2,0.2-0.4,0.3-0.5c0.1-0.1,0.2-0.2,0.4-0.2h1.3l1.9-4.5
		l-1.1,0c-0.1,0-0.2-0.1-0.2-0.2c0-0.2,0.1-0.3,0.1-0.5c0-0.2,0.2-0.4,0.3-0.5c0.1-0.1,0.2-0.2,0.4-0.2h1.5c0.1,0,0.2,0,0.3,0.1
		c0,0.1,0.1,0.2-0.1,0.3l-2.4,5.6h1.3c0.1,0,0.2,0.1,0.2,0.2c0,0.1-0.1,0.3-0.1,0.5c0,0.2-0.2,0.4-0.3,0.5c-0.1,0.2-0.2,0.2-0.3,0.2
		h-3.5L43.9,41.4z M50.2,31.8c-0.1,0.2-0.3,0.4-0.5,0.6c-0.2,0.2-0.5,0.3-0.7,0.3c-0.2,0-0.4-0.1-0.4-0.3s0-0.4,0-0.6
		c0.1-0.2,0.3-0.4,0.5-0.6s0.4-0.2,0.6-0.2s0.4,0.1,0.5,0.2C50.4,31.3,50.4,31.5,50.2,31.8z"/>
	<path d="M57.8,39.8c0.1,0,0.2,0.1,0.2,0.2c0,0.1-0.1,0.3-0.1,0.5s-0.2,0.4-0.3,0.5c-0.1,0.2-0.2,0.2-0.3,0.2l-2.9,0
		c-0.1,0-0.2-0.1-0.2-0.2c0-0.2,0.1-0.3,0.1-0.5c0-0.2,0.2-0.4,0.3-0.5c0.1-0.1,0.2-0.2,0.4-0.2h1.1l1.4-3.4
		c0.2-0.3,0.1-0.6-0.2-0.8c-0.3-0.2-0.6-0.3-1.1-0.3c-0.6,0-1.1,0.1-1.6,0.3c-0.4,0.2-0.9,0.5-1.4,0.9l-1.4,3.3H53
		c0.1,0,0.2,0.1,0.2,0.2c0,0.1-0.1,0.3-0.1,0.5c0,0.2-0.2,0.4-0.3,0.5c-0.1,0.2-0.2,0.2-0.3,0.2l-2.9,0c-0.1,0-0.2-0.1-0.2-0.2
		c0-0.2,0.1-0.3,0.1-0.5c0-0.2,0.2-0.4,0.3-0.5c0.1-0.1,0.2-0.2,0.4-0.2h1.1l1.9-4.6h-1.1c-0.1,0-0.2-0.1-0.2-0.2
		c0-0.1,0.1-0.3,0.1-0.5c0-0.2,0.2-0.3,0.3-0.5c0.1-0.1,0.2-0.2,0.3-0.2h1.5c0.1,0,0.2,0,0.3,0.1c0,0.1,0.1,0.2-0.1,0.3l-0.2,0.6
		c0.5-0.4,1-0.7,1.5-0.9c0.4-0.2,1-0.3,1.5-0.3c0.8,0,1.3,0.2,1.6,0.7c0.2,0.5,0.2,1,0,1.8l-1.5,3.6C57.1,39.8,57.8,39.8,57.8,39.8z
		"/>
	<path d="M61.9,35.4c-0.1,0-0.2-0.1-0.2-0.2c0-0.2,0.1-0.3,0.1-0.5c0-0.2,0.2-0.4,0.3-0.5s0.2-0.2,0.4-0.2h1.8l0.7-1.8
		c0-0.1,0.1-0.2,0.3-0.3c0.1-0.1,0.2-0.1,0.3-0.1c0.1,0,0.2,0,0.3,0.1c0.1,0.1,0.1,0.2-0.1,0.3L65.2,34l2.5,0c0.1,0,0.2,0.1,0.2,0.2
		c0,0.1-0.1,0.3-0.1,0.5c-0.1,0.2-0.2,0.4-0.3,0.5c-0.1,0.2-0.2,0.2-0.3,0.2h-2.5l-1.5,3.8c-0.1,0.2-0.1,0.4,0.1,0.6
		c0.2,0.2,0.4,0.2,0.7,0.2s0.5,0,0.7-0.1c0.2-0.1,0.5-0.2,0.8-0.4c0.1-0.1,0.2-0.1,0.3-0.2c0.1,0,0.2,0,0.2,0.1
		c0.1,0.1,0.1,0.1,0.1,0.2c0,0.1,0,0.2-0.2,0.4c-0.4,0.5-0.9,0.9-1.3,1.2c-0.6,0.3-1,0.5-1.4,0.5c-0.6,0-1-0.2-1.1-0.6
		c-0.2-0.4-0.1-0.9,0.1-1.5l1.7-4.1h-1.8L61.9,35.4z"/>
	<path d="M68.6,37.8c-0.3,0.8-0.3,1.3,0,1.6c0.3,0.3,0.8,0.5,1.5,0.5c0.4,0,0.8-0.1,1.2-0.2c0.4-0.2,0.9-0.4,1.2-0.6
		c0.1-0.1,0.2-0.2,0.3-0.2c0.1,0,0.2,0,0.2,0.1c0,0.1,0.1,0.1,0.1,0.2c0,0.1-0.1,0.2-0.2,0.4c-0.4,0.5-1,1-1.6,1.4
		c-0.7,0.4-1.3,0.6-1.9,0.5c-1,0-1.6-0.4-1.9-1.2c-0.3-0.7-0.1-1.7,0.4-3c0.5-1.1,1.1-1.9,2-2.6c0.8-0.7,1.8-1,2.8-1
		c0.9,0,1.4,0.3,1.7,1c0.3,0.7,0.1,1.6-0.3,2.7c0,0.1-0.1,0.2-0.3,0.3c-0.1,0.1-0.2,0.1-0.3,0.1L68.6,37.8z M73.4,37
		c0.2-0.5,0.1-1-0.2-1.3c-0.1-0.3-0.6-0.4-1.2-0.4c-0.7,0-1.2,0.1-1.8,0.4c-0.6,0.3-0.9,0.7-1.3,1.3L73.4,37z"/>
	<path d="M82.4,33.9c0.1,0.1,0.1,0.2,0,0.4c0,0.2-0.2,0.4-0.3,0.6c-0.1,0.2-0.3,0.4-0.4,0.5c-0.1,0.1-0.2,0.1-0.3,0.1
		c-0.3-0.3-0.7-0.3-1.2-0.3c-0.5,0.1-1.2,0.4-1.9,1.1c0,0-0.3,0.6-0.8,1.8s-0.7,1.8-0.7,1.8h1.1c0.1,0,0.2,0.1,0.2,0.2
		c0,0.1-0.1,0.3-0.1,0.5c-0.1,0.2-0.2,0.4-0.3,0.5c-0.2,0.1-0.4,0.2-0.5,0.2h-2.9c-0.1,0-0.2-0.1-0.2-0.2c0-0.2,0.1-0.3,0.1-0.5
		c0-0.2,0.2-0.4,0.3-0.5c0.1-0.1,0.2-0.2,0.4-0.2h1.1l1.9-4.5h-1.1c-0.1,0-0.2-0.1-0.2-0.2c0-0.2,0.1-0.3,0.1-0.5
		c0-0.2,0.2-0.4,0.3-0.5s0.2-0.2,0.4-0.2h1.5c0.1,0,0.2,0,0.3,0.1c0.1,0.1,0.1,0.2-0.1,0.3c-0.2,0.4-0.3,0.6-0.2,0.6
		c0.7-0.6,1.4-1,2.1-1.1C81.6,33.6,82.1,33.7,82.4,33.9z"/>
	<path d="M94.3,39.8c0.1,0,0.2,0.1,0.2,0.2c0,0.1-0.1,0.3-0.1,0.5c0,0.2-0.2,0.4-0.3,0.5c-0.1,0.2-0.2,0.2-0.3,0.2h-2.9
		c-0.1,0-0.2-0.1-0.2-0.2c0-0.2,0.1-0.3,0.1-0.5c0-0.2,0.2-0.4,0.3-0.5c0.1-0.1,0.2-0.2,0.4-0.2l1.1,0l1.4-3.4
		c0.2-0.3,0.1-0.6-0.2-0.8c-0.3-0.2-0.6-0.3-1.1-0.3c-0.6,0-1.1,0.1-1.6,0.3c-0.4,0.2-0.9,0.5-1.4,0.9l-1.5,3.3h1
		c0.1,0,0.2,0.1,0.2,0.2c0,0.1-0.1,0.3-0.1,0.5c-0.1,0.2-0.2,0.4-0.3,0.5c-0.1,0.2-0.2,0.2-0.3,0.2l-2.9,0c-0.1,0-0.2-0.1-0.2-0.2
		c0-0.2,0.1-0.3,0.1-0.5c0-0.2,0.2-0.4,0.3-0.5c0.1-0.1,0.2-0.2,0.4-0.2h1.1l3.4-8.4l-1.1,0c-0.1,0-0.2-0.1-0.2-0.2
		c0-0.1,0.1-0.3,0.1-0.5c0-0.2,0.2-0.3,0.3-0.5c0.1-0.1,0.2-0.2,0.3-0.2H92c0.1,0,0.2,0,0.3,0.1c0,0.1,0.1,0.2-0.1,0.3l-1.9,4.5
		c0.5-0.4,1-0.7,1.5-0.9c0.4-0.2,1-0.3,1.5-0.3c0.8,0,1.3,0.2,1.6,0.7c0.2,0.5,0.2,1,0,1.8l-1.5,3.6C93.3,39.8,94.3,39.8,94.3,39.8z
		"/>
	<path d="M97.6,37.8c-0.3,0.8-0.3,1.3,0,1.6s0.8,0.5,1.5,0.5c0.4,0,0.8-0.1,1.2-0.2c0.4-0.2,0.9-0.4,1.2-0.6
		c0.1-0.1,0.2-0.2,0.3-0.2c0.1,0,0.2,0,0.2,0.1c0,0.1,0.1,0.1,0.1,0.2c0,0.1-0.1,0.2-0.2,0.4c-0.4,0.5-1,1-1.6,1.4s-1.3,0.6-1.9,0.5
		c-1,0-1.6-0.4-1.9-1.2c-0.3-0.7-0.1-1.7,0.4-3c0.5-1.1,1.1-1.9,2-2.6c0.8-0.7,1.8-1,2.8-1c0.9,0,1.4,0.3,1.7,1
		c0.3,0.7,0.1,1.6-0.3,2.7c0,0.1-0.1,0.2-0.3,0.3s-0.2,0.1-0.3,0.1L97.6,37.8z M102.4,37c0.2-0.5,0.1-1-0.2-1.3
		c-0.2-0.3-0.6-0.4-1.2-0.4c-0.6,0-1.2,0.1-1.8,0.4c-0.6,0.3-0.9,0.7-1.3,1.3H102.4z"/>
	<path d="M109.6,36.4c0.2-0.4,0.1-0.7-0.1-0.9c-0.3-0.2-0.5-0.3-1-0.3c-0.4,0-0.8,0-1.1,0.1c-0.3,0.1-0.7,0.3-0.9,0.5
		c-0.1,0.1-0.2,0.1-0.3,0.1s-0.2,0-0.2-0.1c0-0.1-0.1-0.2,0-0.3c0-0.1,0-0.2,0.2-0.3c0.4-0.5,0.9-0.9,1.4-1.2s1.1-0.5,1.7-0.5
		c0.8,0,1.3,0.2,1.5,0.7c0.2,0.4,0.2,1-0.1,1.8l-1.5,3.4c-0.1,0.2-0.1,0.4,0.1,0.4c0.2,0.1,0.4,0,0.7-0.2c0.1-0.1,0.2-0.1,0.3-0.1
		c0.1,0,0.2,0,0.2,0.1s0.1,0.1,0.1,0.2c0,0.1-0.1,0.2-0.2,0.3c-0.4,0.3-0.6,0.6-0.9,0.8c-0.3,0.2-0.7,0.3-0.8,0.2s-0.4-0.2-0.4-0.4
		c-0.1-0.2,0-0.4,0-0.6c-0.6,0.4-1,0.7-1.6,0.9c-0.5,0.2-1.1,0.3-1.5,0.3c-0.6,0-1-0.2-1.2-0.4c-0.2-0.3-0.4-0.7-0.2-1.2
		c0.1-0.6,0.5-1.2,1-1.7c0.5-0.5,1.1-0.8,1.8-1.1c0.5-0.2,1.1-0.3,1.5-0.4C108.2,36.6,108.8,36.5,109.6,36.4z M109.3,37.2
		c-0.6,0-1.1,0.1-1.6,0.2c-0.5,0.1-0.9,0.2-1.5,0.4c-0.4,0.1-0.8,0.3-1.1,0.5c-0.2,0.2-0.5,0.5-0.6,0.7c-0.2,0.3-0.1,0.5,0.1,0.6
		c0.2,0.2,0.5,0.2,0.9,0.2c0.5,0,0.9-0.1,1.4-0.2c0.5-0.1,1-0.3,1.4-0.6L109.3,37.2z"/>
	<path d="M120,33.9c0.1,0.1,0.1,0.2,0,0.4c0,0.2-0.2,0.4-0.3,0.6c-0.1,0.2-0.3,0.4-0.4,0.5c-0.1,0.1-0.2,0.1-0.3,0.1
		c-0.3-0.3-0.7-0.3-1.2-0.3c-0.5,0.1-1.2,0.4-1.9,1.1c0,0-0.3,0.6-0.8,1.8s-0.7,1.8-0.7,1.8h1.1c0.1,0,0.2,0.1,0.2,0.2
		s-0.1,0.3-0.1,0.5c0,0.2-0.2,0.4-0.3,0.5c-0.1,0.2-0.2,0.2-0.3,0.2H112c-0.1,0-0.2-0.1-0.2-0.2c0-0.2,0.1-0.3,0.1-0.5
		c0-0.2,0.2-0.4,0.3-0.5c0.1-0.1,0.2-0.2,0.4-0.2l1.1,0l1.9-4.5h-1.1c-0.1,0-0.2-0.1-0.2-0.2c0-0.2,0.1-0.3,0.1-0.5
		c0-0.2,0.2-0.4,0.3-0.5c0.1-0.1,0.2-0.2,0.4-0.2h1.5c0.1,0,0.2,0,0.3,0.1c0.1,0.1,0.1,0.2-0.1,0.3c-0.2,0.4-0.3,0.6-0.2,0.6
		c0.7-0.6,1.4-1,2.1-1.1C119.2,33.6,119.7,33.7,120,33.9z"/>
	<path d="M121.5,35.4c-0.1,0-0.2-0.1-0.2-0.2c0-0.2,0.1-0.3,0.1-0.5c0-0.2,0.2-0.4,0.3-0.5c0.1-0.1,0.2-0.2,0.4-0.2h1.8l0.7-1.8
		c0-0.1,0.1-0.2,0.3-0.3c0.1-0.1,0.2-0.1,0.3-0.1c0.1,0,0.2,0,0.3,0.1c0.1,0.1,0.1,0.2-0.1,0.3l-0.7,1.8l2.5,0
		c0.1,0,0.2,0.1,0.2,0.2c0,0.1-0.1,0.3-0.1,0.5c-0.1,0.2-0.2,0.4-0.3,0.5c-0.1,0.2-0.2,0.2-0.3,0.2h-2.5l-1.5,3.8
		c-0.1,0.2-0.1,0.4,0.1,0.6c0.2,0.2,0.4,0.2,0.7,0.2c0.3,0,0.5,0,0.7-0.1c0.2-0.1,0.5-0.2,0.8-0.4c0.1-0.1,0.2-0.1,0.3-0.2
		c0.1,0,0.2,0,0.2,0.1c0.1,0.1,0.1,0.1,0.1,0.2c0,0.1,0,0.2-0.2,0.4c-0.4,0.5-0.9,0.9-1.3,1.2c-0.6,0.3-1,0.5-1.4,0.5
		c-0.6,0-1-0.2-1.1-0.6c-0.2-0.4-0.1-0.9,0.1-1.5l1.7-4.1h-1.8L121.5,35.4z"/>
</g>
<path class="st1" d="M21,68.2c-10.7,1.1-13.9-8.6-8.4-22.5l0,0c-7.9,14.6-3.5,25.8,8.3,24.5c11.1-1.1,24.3-12,33.5-26.7l0,0
	C44.7,56.7,31.1,67.1,21,68.2z"/>
<path class="st1" d="M54.6,5.2c12.8-0.9,14,9.4,10,23.5l0,0C70.8,13,67,1.9,54.9,3.3C43.6,4.5,29,16.2,20.8,31l0,0
	C30.5,17.5,44.3,5.9,54.6,5.2z"/>
<path class="st2" d="M89.7,12.6c7.1-0.4,9.1,6.6,5.8,16.5l0,0c5.2-10.7,2.5-19-5.3-18.5c-7.4,0.5-16.6,7.7-23.1,18.5l0,0
	C74,19.9,83.1,13,89.7,12.6z"/>
<path class="st2" d="M63.8,61.8c-7,0.4-9.1-6.5-5.9-16.3l0,0c-4.7,10.3-2.1,18.4,5.7,17.9c7.3-0.5,16.5-7.7,22.8-17.9l0,0
	C79.4,54.6,70.3,61.4,63.8,61.8z"/>
<path class="st3" d="M110.8,21.5c4.2-0.3,5.9,3.2,4.8,8.5l0,0c2.1-5.8,0.2-10.1-4.6-9.8c-4.5,0.3-9.8,3.9-13.7,9.8l0,0
	C101.9,25.1,107,21.7,110.8,21.5z"/>
<path class="st3" d="M92.7,55.4c-4.2,0.3-5.9-3.2-4.8-8.5l0,0c-2.1,5.6,0,9.9,4.7,9.6c4.4-0.3,9.5-3.5,13.6-9.6l0,0
	C101.7,51.9,96.6,55.2,92.7,55.4z"/>
</svg>
