<svg xmlns="http://www.w3.org/2000/svg" viewBox="0 0 59.82 70.44"><defs><style>.cls-1{opacity:0.54;}.cls-2{opacity:0.66;}.cls-3{fill:#53c2ee;}</style></defs><title>アセット 2</title><g id="レイヤー_2" data-name="レイヤー 2"><g id="レイヤー_1-2" data-name="レイヤー 1"><g class="cls-1"><g id="レイヤー_1-2-2" data-name="レイヤー 1-2"><g class="cls-2"><g id="レイヤー_1-2-2-2" data-name="レイヤー 1-2-2"><path class="cls-3" d="M53.47,42.21l-2.84,1.2c-.44.19-.88.38-1.33.55-.15.06-.33.08-.41-.08a.35.35,0,0,1,.06-.42c1.17-1.45,2.32-3,3.5-4.45,1.3-1.64,2.65-3.32,4-5l.8-1c.09-.1.17-.26.35-.18a.4.4,0,0,1,.22.35l.39,2.88c.21,1.54.43,3.08.63,4.61.24,1.81.5,3.61.7,5.43.08.62.18,1.31.28,2h0a.31.31,0,0,1-.2.37c-.19.08-.27,0-.35-.19l-1.53-2.81L56.54,43.3c0-.07,0-.2-.16-.18s-.12.11-.12.19c-.21.7-.44,1.52-.64,2.24a22.49,22.49,0,0,1-.78,2.22c-.35.87-.71,1.74-1.12,2.58A31.41,31.41,0,0,1,52,53.41c-.58.9-1.2,1.77-1.85,2.6A33.27,33.27,0,0,1,45,61.24a50,50,0,0,1-4.62,3.42A10.33,10.33,0,0,1,38,65.93c-.43.15-.62.53-.89.83-1,1.18-2.1,2.39-3.1,3.6-.13.1-.2.12-.38,0-1.36-.83-2.7-1.66-4-2.54a4,4,0,0,0-1.8-.65,11.62,11.62,0,0,1-2.09-.52c-.81-.24-1.62-.51-2.41-.8-.95-.34-1.9-.71-2.84-1.11-.77-.32-1.55-.65-2.3-1a22.63,22.63,0,0,1-2.12-1.12,31.91,31.91,0,0,1-2.88-1.91,29.64,29.64,0,0,1-4.77-4.46,32.65,32.65,0,0,1-3.91-5.5c0-.08-.09-.23-.23-.23A6.77,6.77,0,0,0,4,51.78c-.33,1.55-.66,3.1-1,4.65,0,.16,0,.38-.31.35s-.29-.21-.29-.39L.78,46.45C.53,44.89.28,43.33,0,41.76c0-.18-.11-.42.09-.53s.38,0,.53.15L5.82,45l3.7,2.6c.63.45,1.28.87,1.91,1.31a2,2,0,0,1,.26.24.29.29,0,0,1,0,.33.33.33,0,0,1-.31.11l-3.32-.35-.5,0c-.12,0-.29-.14-.35,0s.11.22.19.31a18.94,18.94,0,0,0,4.42,3.81,25.24,25.24,0,0,0,4.8,2.38,27.37,27.37,0,0,0,3.63,1.06,29.88,29.88,0,0,0,5.24.71H27.2c.24,0,.24-.07.24-.27-.13-1.15-.26-2.29-.37-3.44-.15-1.47-.27-2.94-.42-4.4-.08-.81-.19-1.62-.27-2.43l-.63-6.29c-.12-1.13-.24-2.27-.35-3.4-.17-1.68-.33-3.34-.5-5-.11-1.09-.23-2.09-.35-3.28s-.24-2.39-.34-3.59c0-.26-.17-.26-.39-.26l-2.61.46c-2.15.31-4.3.58-6.44.92-.72.11-1.45.16-2.17.31-.18,0-.33,0-.33-.19-.07-1.08-.29-2.08-.44-3.08-.05-.3,0-.46.33-.46.73-.07,1.46-.19,2.19-.29,1.88-.24,3.75-.57,5.63-.86,1.11-.16,2.21-.32,3.32-.45.37,0,.37-.2.37-.49-.18-1.68-.43-3.33-.51-5,0-.83-.35-1.08-1.09-1.32a7,7,0,0,1-3.76-3,7.21,7.21,0,0,1-1.13-3,7.52,7.52,0,0,1,.41-3.73A7.12,7.12,0,0,1,19.81,1.8,2.11,2.11,0,0,1,20,1.61h0A7.49,7.49,0,0,1,30.56,2.85,7.22,7.22,0,0,1,32,9.19,7.37,7.37,0,0,1,28.48,14a.35.35,0,0,0-.2.44c.38,1.92.75,3.83,1.12,5.75,0,.24.15.24.37.24.95-.15,1.9-.31,2.85-.43,2.37-.27,4.68-.69,7-1,.5-.07,1-.1,1.5-.2.19,0,.33,0,.33.23.15,1,.32,2.1.48,3.1,0,.24,0,.39-.3.39-.81.1-1.63.21-2.45.34-1.88.27-3.76.57-5.64.85-.95.14-1.95.28-2.95.4-.31,0-.38.1-.31.45.3,1.41.52,2.83.79,4.24.39,2.07.81,4.14,1.2,6.21.26,1.4.49,2.8.77,4.2.36,1.85.7,3.71,1.05,5.56.28,1.48.55,3,.86,4.48.22,1,.38,2,.61,3.15s.43,2.28.64,3.42c0,.31.14.31.43.24a29.86,29.86,0,0,0,3.19-1.07A28.82,28.82,0,0,0,44,52.76a29.3,29.3,0,0,0,4.42-3.34,21.7,21.7,0,0,0,4.09-5.2C52.82,43.62,53.13,43,53.47,42.21ZM25.28,11.28a3.77,3.77,0,0,0-1.22-7.44H24a3.7,3.7,0,0,0-3,4.28v.15h0a3.72,3.72,0,0,0,4.31,3Z"/></g></g></g></g></g></g></svg>