<svg xmlns="http://www.w3.org/2000/svg" viewBox="0 0 59.82 70.44"><defs><style>.cls-1{opacity:0.54;}.cls-2{opacity:0.66;}.cls-3{fill:#53c2ee;}</style></defs><title>アセット 1</title><g id="レイヤー_2" data-name="レイヤー 2"><g id="レイヤー_1-2" data-name="レイヤー 1"><g class="cls-1"><g id="レイヤー_1-2-2" data-name="レイヤー 1-2"><g class="cls-2"><g id="レイヤー_1-2-2-2" data-name="レイヤー 1-2-2"><path class="cls-3" d="M7.29,44.22a21.7,21.7,0,0,0,4.09,5.2,29.81,29.81,0,0,0,4.42,3.34A28.82,28.82,0,0,0,20,54.94,29.86,29.86,0,0,0,23.19,56c.29.07.38.07.43-.24.21-1.14.41-2.29.64-3.42s.39-2.1.61-3.15c.31-1.49.58-3,.86-4.48.35-1.85.69-3.71,1.05-5.56.28-1.4.51-2.8.77-4.2.39-2.07.81-4.14,1.2-6.21.27-1.41.49-2.83.79-4.24.07-.35,0-.41-.31-.45-1-.12-2-.26-2.95-.4-1.88-.28-3.76-.58-5.64-.85-.82-.13-1.64-.24-2.45-.34-.26,0-.34-.15-.3-.39.16-1,.33-2.06.48-3.1,0-.23.14-.27.33-.23.5.1,1,.13,1.5.2,2.32.31,4.63.73,7,1,.95.12,1.9.28,2.85.43.22,0,.33,0,.37-.24.37-1.92.74-3.83,1.12-5.75a.35.35,0,0,0-.2-.44,7.37,7.37,0,0,1-3.53-4.76,7.22,7.22,0,0,1,1.45-6.34A7.49,7.49,0,0,1,39.78,1.61h0A2.11,2.11,0,0,1,40,1.8a7.12,7.12,0,0,1,2.22,3.13,7.52,7.52,0,0,1,.41,3.73,7.08,7.08,0,0,1-1.13,3,7,7,0,0,1-3.76,3c-.74.24-1.06.49-1.09,1.32-.08,1.67-.33,3.32-.51,5,0,.29,0,.45.37.49,1.11.13,2.21.29,3.32.45,1.88.29,3.75.62,5.63.86.73.1,1.46.22,2.19.29.31,0,.38.16.33.46-.15,1-.37,2-.44,3.08,0,.22-.15.23-.33.19-.72-.15-1.45-.2-2.17-.31-2.14-.34-4.29-.61-6.44-.92L36,25.11c-.22,0-.36,0-.39.26-.1,1.2-.22,2.4-.34,3.59s-.24,2.19-.35,3.28c-.17,1.66-.33,3.32-.5,5-.11,1.13-.23,2.27-.35,3.4l-.63,6.29c-.08.81-.19,1.62-.27,2.43-.15,1.46-.27,2.93-.42,4.4-.11,1.15-.24,2.29-.37,3.44,0,.2,0,.26.24.27h1.71a29.88,29.88,0,0,0,5.24-.71A26.93,26.93,0,0,0,43.2,55.7,25.24,25.24,0,0,0,48,53.32a18.94,18.94,0,0,0,4.42-3.81c.08-.09.25-.17.19-.31s-.23,0-.35,0l-.5,0-3.32.35a.33.33,0,0,1-.31-.11.29.29,0,0,1,0-.33,2,2,0,0,1,.26-.24c.63-.44,1.28-.86,1.91-1.31L54,45l5.16-3.63c.15-.11.33-.26.53-.15s.12.35.09.53c-.24,1.57-.49,3.13-.74,4.69L57.4,56.39c0,.18,0,.36-.29.39s-.27-.19-.31-.35c-.34-1.55-.67-3.1-1-4.65a6.77,6.77,0,0,0-.29-1.26c-.14,0-.18.15-.23.23a32.65,32.65,0,0,1-3.91,5.5,29.64,29.64,0,0,1-4.77,4.46,30.56,30.56,0,0,1-2.88,1.91,21.45,21.45,0,0,1-2.12,1.12c-.75.35-1.53.68-2.3,1-.94.4-1.89.77-2.84,1.11-.79.29-1.6.56-2.41.8a11.62,11.62,0,0,1-2.09.52,4,4,0,0,0-1.8.65c-1.3.88-2.64,1.71-4,2.54-.18.12-.25.1-.38,0-1-1.21-2.05-2.42-3.1-3.6-.27-.3-.46-.68-.89-.83a10.33,10.33,0,0,1-2.33-1.27,50,50,0,0,1-4.62-3.42A33.71,33.71,0,0,1,9.66,56c-.65-.83-1.27-1.7-1.85-2.6A31.41,31.41,0,0,1,6.1,50.35c-.41-.84-.77-1.71-1.12-2.58a22.49,22.49,0,0,1-.78-2.22c-.2-.72-.43-1.54-.64-2.24,0-.08,0-.17-.12-.19s-.12.11-.16.18L2.09,45.47.56,48.28c-.08.15-.16.27-.35.19A.31.31,0,0,1,0,48.1H0c.1-.69.2-1.38.28-2,.2-1.82.46-3.62.7-5.43.2-1.53.42-3.07.63-4.61L2,33.18a.4.4,0,0,1,.22-.35c.18-.08.26.08.35.18l.8,1c1.35,1.68,2.7,3.36,4,5,1.18,1.48,2.33,3,3.5,4.45a.35.35,0,0,1,.06.42c-.08.16-.26.14-.41.08-.45-.17-.89-.36-1.33-.55l-2.84-1.2C6.69,43,7,43.62,7.29,44.22ZM34.53,11.27a3.71,3.71,0,0,0,4.31-3h0V8.12a3.7,3.7,0,0,0-3-4.28h-.08a3.77,3.77,0,0,0-1.22,7.44Z"/></g></g></g></g></g></g></svg>