<svg xmlns="http://www.w3.org/2000/svg" viewBox="0 0 110.55 67.12"><defs><style>.cls-1{fill:#e61815;}.cls-2{fill:#00c124;}.cls-3{fill:#02b8d1;}</style></defs><title>アセット 2</title><g id="レイヤー_2" data-name="レイヤー 2"><g id="レイヤー_1-2" data-name="レイヤー 1"><path class="cls-1" d="M12.39,65c-10.7,1.1-13.9-8.6-8.4-22.5H4c-7.9,14.6-3.5,25.8,8.3,24.5,11.1-1.1,24.3-12,33.5-26.7h0C36.09,53.52,22.49,63.92,12.39,65Z"/><path class="cls-1" d="M46,2c12.8-.9,14,9.4,10,23.5h0c6.2-15.7,2.4-26.8-9.7-25.4C35,1.32,20.39,13,12.19,27.82h0C21.89,14.32,35.69,2.72,46,2Z"/><path class="cls-2" d="M81.09,9.42c7.1-.4,9.1,6.6,5.8,16.5h0c5.2-10.7,2.5-19-5.3-18.5-7.4.5-16.6,7.7-23.1,18.5h0C65.39,16.72,74.49,9.82,81.09,9.42Z"/><path class="cls-2" d="M55.19,58.62c-7,.4-9.1-6.5-5.9-16.3h0c-4.7,10.3-2.1,18.4,5.7,17.9,7.3-.5,16.5-7.7,22.8-17.9h0C70.79,51.42,61.69,58.22,55.19,58.62Z"/><path class="cls-3" d="M102.19,18.32c4.2-.3,5.9,3.2,4.8,8.5h0c2.1-5.8.2-10.1-4.6-9.8-4.5.3-9.8,3.9-13.7,9.8h0C93.29,21.92,98.39,18.52,102.19,18.32Z"/><path class="cls-3" d="M84.09,52.22c-4.2.3-5.9-3.2-4.8-8.5h0c-2.1,5.6,0,9.9,4.7,9.6,4.4-.3,9.5-3.5,13.6-9.6h0C93.09,48.72,88,52,84.09,52.22Z"/><path d="M7.34,29.86,7,30.68H4.83L2.24,37.75H1.11L3.7,30.68H1.5l.3-.82Z"/><path d="M11.9,32.5c.44.47.45,1.3,0,2.48a4.49,4.49,0,0,1-1.82,2.45,3.69,3.69,0,0,1-1.93.51,2.05,2.05,0,0,1-1.55-.51c-.44-.47-.45-1.29,0-2.45A4.61,4.61,0,0,1,8.42,32.5,3.84,3.84,0,0,1,10.35,32,2.15,2.15,0,0,1,11.9,32.5Zm-2.81.55A3.67,3.67,0,0,0,7.81,35c-.36,1-.41,1.65-.14,1.94a1,1,0,0,0,.77.27,1.9,1.9,0,0,0,1-.27A3.61,3.61,0,0,0,10.68,35c.37-1,.42-1.64.15-1.93a1.13,1.13,0,0,0-.77-.27A2.07,2.07,0,0,0,9.09,33.05Z"/><path d="M17.84,30.41l-.65,1.77h1.54l-.28.75H16.92l-1.36,3.71c-.07.19-.08.3,0,.36a.55.55,0,0,0,.42.12h1l-.3.82h-1a1.71,1.71,0,0,1-1.17-.27c-.15-.16-.15-.45,0-.87l1.41-3.87H15l.28-.75h.87l.65-1.77Z"/><path d="M24.7,32.38c.27.29.26.83,0,1.62l-1,2.68c-.05.13,0,.21,0,.24a1.08,1.08,0,0,0,.34,0l-.29.79a3,3,0,0,1-1.18-.12.48.48,0,0,1-.15-.44,5.51,5.51,0,0,1-1,.6,2.43,2.43,0,0,1-.83.15,1.27,1.27,0,0,1-1-.31,1,1,0,0,1-.05-1.11A2.92,2.92,0,0,1,20.78,35a7.82,7.82,0,0,1,2.76-.82c.23-.64.26-1,.09-1.23a.71.71,0,0,0-.51-.15,1.16,1.16,0,0,0-.57.15,1.38,1.38,0,0,0-.61.71H20.81A2.62,2.62,0,0,1,22,32.34,2.78,2.78,0,0,1,23.47,32,1.62,1.62,0,0,1,24.7,32.38Zm-3.09,3a1.94,1.94,0,0,0-.88,1c-.1.29-.11.48,0,.59a.55.55,0,0,0,.42.12,1.79,1.79,0,0,0,.63-.2,4.64,4.64,0,0,0,1.13-.83l.42-1.14A4.62,4.62,0,0,0,21.61,35.38Z"/><path d="M31.42,29.86l-2.89,7.89H27.4l2.89-7.89Z"/><path d="M43.58,32.18l-2,5.57H40.41l2-5.57Zm.62-2,.15.16-.26.71-.27.16H42.9l-.14-.16.26-.71.26-.16Z"/><path d="M51.33,32.3c.22.24.23.61.05,1.11l-1.59,4.34H48.66l1.54-4.19c.13-.36.15-.6,0-.71a.3.3,0,0,0-.23-.07,1.79,1.79,0,0,0-.73.19,4.52,4.52,0,0,0-1.59,1.11l-1.34,3.67H45.23l2-5.57H48.4l-.28.75a6.2,6.2,0,0,1,1.3-.75,2.62,2.62,0,0,1,1-.19A1.19,1.19,0,0,1,51.33,32.3Z"/><path d="M57.19,30.41l-.65,1.77h1.54l-.27.75H56.27l-1.36,3.71c-.07.19-.08.3,0,.36a.55.55,0,0,0,.42.12h1l-.3.82H55a1.72,1.72,0,0,1-1.18-.27c-.15-.16-.15-.45,0-.87l1.41-3.87h-.87l.28-.75h.87l.65-1.77Z"/><path d="M64.4,32.42q.59.63-.15,2.64H60.71c-.34.95-.38,1.57-.11,1.86a.73.73,0,0,0,.58.23,1.36,1.36,0,0,0,.67-.15,1.62,1.62,0,0,0,.58-.75h1.28a3.7,3.7,0,0,1-1.24,1.3,3.15,3.15,0,0,1-1.63.39,1.61,1.61,0,0,1-1.26-.47c-.47-.5-.46-1.41,0-2.72a4.51,4.51,0,0,1,1.89-2.37A3.15,3.15,0,0,1,63.12,32,1.68,1.68,0,0,1,64.4,32.42Zm-2.29.51A3.13,3.13,0,0,0,61,34.31h2.3c.25-.65.24-1.11,0-1.38a.71.71,0,0,0-.51-.15A1.33,1.33,0,0,0,62.11,32.93Z"/><path d="M71.22,33a3.84,3.84,0,0,0-1.55.32,4.59,4.59,0,0,0-1.5,1.14L67,37.75H65.83l2-5.57H69l-.38,1a4.72,4.72,0,0,1,1.49-1A5.21,5.21,0,0,1,71.59,32Z"/><path d="M82.2,29.86,81.05,33a4,4,0,0,1,2.26-1,1.32,1.32,0,0,1,1,.27,1.09,1.09,0,0,1,.08,1.19l-1.57,4.3H81.66l1.52-4.15c.12-.34.14-.56,0-.67a.4.4,0,0,0-.32-.11,4.1,4.1,0,0,0-2.28,1.34L79.3,37.75h-1l2.89-7.89Z"/><path d="M90.63,32.42q.59.63-.15,2.64H87q-.53,1.42-.12,1.86a.75.75,0,0,0,.58.23,1.33,1.33,0,0,0,.67-.15,1.63,1.63,0,0,0,.59-.75H90a3.73,3.73,0,0,1-1.25,1.3,3.15,3.15,0,0,1-1.63.39,1.61,1.61,0,0,1-1.26-.47c-.47-.5-.46-1.41,0-2.72a4.48,4.48,0,0,1,1.9-2.37A3.12,3.12,0,0,1,89.36,32,1.65,1.65,0,0,1,90.63,32.42Zm-2.29.51a3.2,3.2,0,0,0-1.12,1.38h2.31c.24-.65.24-1.11,0-1.38a.68.68,0,0,0-.5-.15A1.37,1.37,0,0,0,88.34,32.93Z"/><path d="M96.85,32.38q.41.43,0,1.62l-1,2.68c0,.13,0,.21,0,.24a1.14,1.14,0,0,0,.34,0l-.29.79a3,3,0,0,1-1.18-.12.48.48,0,0,1-.15-.44,5.22,5.22,0,0,1-1,.6,2.42,2.42,0,0,1-.82.15,1.24,1.24,0,0,1-1-.31,1.05,1.05,0,0,1-.06-1.11A2.92,2.92,0,0,1,92.92,35a7.82,7.82,0,0,1,2.76-.82c.24-.64.26-1,.09-1.23a.68.68,0,0,0-.5-.15,1.1,1.1,0,0,0-.57.15,1.41,1.41,0,0,0-.62.71H93a2.6,2.6,0,0,1,1.2-1.3A2.75,2.75,0,0,1,95.61,32,1.66,1.66,0,0,1,96.85,32.38Zm-3.1,3a1.88,1.88,0,0,0-.87,1c-.11.29-.12.48,0,.59a.59.59,0,0,0,.42.12,1.83,1.83,0,0,0,.64-.2A4.62,4.62,0,0,0,95,36.05l.42-1.14A4.62,4.62,0,0,0,93.75,35.38Z"/><path d="M104,33a3.84,3.84,0,0,0-1.55.32,4.59,4.59,0,0,0-1.5,1.14l-1.21,3.32H98.62l2-5.57h1.13l-.38,1a4.72,4.72,0,0,1,1.49-1,5.29,5.29,0,0,1,1.48-.27Z"/><path d="M109.66,30.41,109,32.18h1.54l-.28.75h-1.53l-1.36,3.71c-.07.19-.08.3,0,.36a.55.55,0,0,0,.42.12h1l-.3.82h-1a1.74,1.74,0,0,1-1.18-.27c-.14-.16-.14-.45,0-.87l1.42-3.87h-.87l.28-.75H108l.65-1.77Z"/></g></g></svg>