<?xml version="1.0" encoding="utf-8"?>
<!-- Generator: Adobe Illustrator 23.1.1, SVG Export Plug-In . SVG Version: 6.00 Build 0)  -->
<svg version="1.1" id="レイヤー_1" xmlns="http://www.w3.org/2000/svg" xmlns:xlink="http://www.w3.org/1999/xlink" x="0px"
	 y="0px" viewBox="0 0 1545.8 1164.7" style="enable-background:new 0 0 1545.8 1164.7;" xml:space="preserve">
<style type="text/css">
	.st0{fill:#F3A6A6;}
	.st1{fill:#4E423E;}
	.st2{fill:#252424;}
	.st3{fill:#EFEFEF;}
	.st4{fill:#E8B6B1;}
	.st5{fill:#EFEBA9;}
	.st6{fill:#EBAFA6;}
	.st7{fill:#4B4847;}
	.st8{fill:#6970B3;}
	.st9{fill:none;}
	.st10{fill:#727171;}
	.st11{fill:#79A8DA;}
	.st12{fill:#ECECEC;}
	.st13{fill:#6C90CB;}
	.st14{fill:#2A3577;}
	.st15{fill:#E8C7C4;}
	.st16{fill:#4A4746;}
</style>
<title>レイヤー 1-2-2</title>
<g id="レイヤー_1-2">
	<g id="レイヤー_1-2-2">
		<path class="st0" d="M284.7,1108.6l-32.6,2.7c6.5-4,3.5-18.4,0-26.9c-0.2-0.5-0.4-1-0.5-1.4l0,0c3.7-3,25.6-4.3,27.6-3.7
			C278,1082,283.6,1108.6,284.7,1108.6z"/>
		<path class="st1" d="M284.7,1108.6c16.8,7,15.6,48.4,15.6,48.4l-119.2,7.5c7-35.2,67.3-52.1,67.3-52.1c1.3,0,2.6-0.4,3.7-1
			C258.2,1115.4,278.8,1114.4,284.7,1108.6z"/>
		<path class="st1" d="M429.5,1102.5c12.2,1.4,93.7,57.3,81.8,60.8s-113.1-1-122.5-3.2s-8.1-4.2-8.5-19.1
			c-0.2-10.1,1.7-14.6,1.7-14.6l8.7-20.6c0,0,29.9,5.3,36.5-4.1C427.9,1102.2,428.7,1102.5,429.5,1102.5z"/>
		<path class="st0" d="M422.3,1071c0,0-4.3,25.9,4.9,30.8c-6.5,9.4-36.5,4.1-36.5,4.1l-7.5-35.8c0,0,9.4,6.5,19.1,5.5
			C410.3,1074.8,422.3,1071,422.3,1071z"/>
		<path class="st1" d="M284.7,1108.6c-6,5.8-26.5,6.8-32.6,2.7L284.7,1108.6L284.7,1108.6z"/>
		<path class="st2" d="M148.1,621.3c0-0.2,0-0.5-0.1-0.7c-0.1-0.2,0-0.4-0.1-0.5s-0.1-0.7-0.2-1c0-0.1,0-0.2-0.1-0.3
			c-0.1-0.4-0.2-0.8-0.3-1.2c0-0.1,0-0.1-0.1-0.2c-0.1-0.4-0.3-0.8-0.5-1.2l-0.2-0.3c-0.1-0.3-0.3-0.6-0.5-0.9l-0.3-0.5
			c-0.1-0.2-0.3-0.5-0.5-0.7l-0.4-0.5c-0.2-0.2-0.3-0.4-0.5-0.6l-0.4-0.5l-0.5-0.5l-0.5-0.4l-0.6-0.5l-0.4-0.3l-0.8-0.5l-0.4-0.2
			c-0.3-0.2-0.6-0.3-0.9-0.5l-0.3-0.2c-0.3-0.2-0.6-0.3-1-0.4l-0.3-0.1l-1-0.3L137,608c-0.3-0.1-0.6-0.2-0.9-0.2l-0.6-0.1
			c-0.3,0-0.5-0.1-0.8-0.1h-2.2c-0.2,0-0.5,0-0.7,0.1l-0.6,0.1c-0.3,0-0.6,0.1-0.9,0.2l-0.4,0.1c-0.3,0.1-0.7,0.2-1,0.3l-0.4,0.2
			l-1,0.4L127,609l-0.8,0.4l-0.5,0.3l-0.7,0.4l-0.5,0.4c-0.2,0.2-0.4,0.3-0.6,0.5l-0.5,0.5c-0.2,0.2-0.4,0.3-0.5,0.5
			s-0.3,0.3-0.4,0.5s-0.3,0.4-0.5,0.6l-0.3,0.5l-0.5,0.7l-0.3,0.4c-0.2,0.3-0.3,0.5-0.5,0.8l-0.2,0.4c-0.1,0.3-0.3,0.6-0.4,0.9
			c-0.1,0.1-0.1,0.3-0.2,0.4c-0.1,0.3-0.2,0.6-0.3,0.9c0,0.2-0.1,0.4-0.1,0.5c0,0.2-0.1,0.5-0.2,0.8s-0.1,0.5-0.1,0.7
			s-0.1,0.5-0.1,0.7s0,0.6,0,0.8v2.1l0.1,0.6c0,0.3,0.1,0.6,0.2,0.9c0,0.1,0,0.2,0.1,0.3c0.1,0.4,0.2,0.8,0.3,1.1
			c0,0.1,0.1,0.2,0.1,0.3c0.1,0.4,0.3,0.7,0.4,1.1c0.1,0.1,0.1,0.3,0.2,0.4s0.3,0.6,0.4,0.8l0.3,0.5c0.1,0.2,0.3,0.4,0.4,0.6
			l0.4,0.6c0.1,0.2,0.3,0.3,0.4,0.5s0.4,0.4,0.6,0.6l0.4,0.4c0.2,0.2,0.4,0.4,0.6,0.5l0.5,0.4l0.6,0.4c0.2,0.1,0.4,0.3,0.6,0.4
			l0.5,0.3c0.2,0.1,0.5,0.3,0.7,0.4l0.5,0.3c0.2,0.1,0.5,0.2,0.8,0.3l0.6,0.2c0.2,0.1,0.5,0.2,0.8,0.2l0.7,0.2l0.7,0.2l0.9,0.1
			l0.5,0.1h3c0.3,0,0.6-0.1,0.8-0.1c0.2,0,0.5-0.1,0.7-0.1l0.6-0.2c0.3,0,0.6-0.1,0.9-0.2l0.5-0.2c0.3-0.1,0.6-0.2,0.9-0.4
			c0.2-0.1,0.3-0.2,0.5-0.2s0.5-0.3,0.8-0.4l0.6-0.3l0.6-0.4l0.6-0.4l0.5-0.4l0.5-0.5l0.5-0.5c0.2-0.2,0.3-0.3,0.5-0.5l0.5-0.6
			c0.1-0.2,0.2-0.3,0.4-0.5s0.3-0.5,0.5-0.7s0.2-0.3,0.3-0.5s0.3-0.5,0.4-0.8l0.2-0.5l0.4-0.8l0.2-0.5c0.1-0.3,0.2-0.6,0.3-0.8
			c0.1-0.2,0.1-0.4,0.1-0.6c0-0.3,0.1-0.5,0.2-0.8c0-0.3,0.1-0.5,0.1-0.7s0.1-0.5,0.1-0.7s0-0.6,0-0.8v-0.6
			C148.1,621.8,148.1,621.5,148.1,621.3z"/>
		<path class="st3" d="M265,623.2l-27.7-81.7c-6.2-18.4-26.2-28.2-44.6-22c0,0,0,0,0,0L23.9,576.8C5.5,583-4.4,603,1.9,621.4l0,0
			L29.5,703c6.3,18.4,26.2,28.2,44.6,22L243,667.8C261.4,661.5,271.2,641.6,265,623.2z M148.1,622.7v0.8c0,0.2,0,0.5-0.1,0.7
			c0,0.2,0,0.5-0.1,0.7c0,0.3-0.1,0.5-0.2,0.8c-0.1,0.3-0.1,0.4-0.1,0.6s-0.2,0.6-0.3,0.8l-0.2,0.5c-0.1,0.3-0.2,0.6-0.4,0.8
			s-0.1,0.3-0.2,0.5s-0.3,0.5-0.4,0.8s-0.2,0.3-0.3,0.5s-0.3,0.5-0.5,0.7s-0.2,0.3-0.4,0.5l-0.5,0.6c-0.1,0.2-0.3,0.3-0.5,0.5
			l-0.5,0.5l-0.5,0.5l-0.5,0.4l-0.6,0.4l-0.6,0.4l-0.6,0.3c-0.2,0.1-0.5,0.3-0.8,0.4s-0.3,0.2-0.5,0.2s-0.6,0.2-0.9,0.4l-0.4,0.1
			h-0.1c-0.3,0.1-0.6,0.2-0.9,0.2s-0.4,0.1-0.6,0.2l-0.7,0.1c-0.2,0-0.6,0.1-0.8,0.1h-2.9l-0.5-0.1l-0.9-0.1l-0.7-0.2
			c-0.2-0.1-0.4-0.1-0.7-0.2l-0.8-0.2l-0.6-0.2c-0.3-0.1-0.5-0.2-0.8-0.3l-0.5-0.3c-0.2-0.1-0.5-0.2-0.7-0.4l-0.5-0.3
			c-0.2-0.1-0.4-0.3-0.6-0.4l-0.6-0.4l-0.5-0.4c-0.2-0.2-0.4-0.3-0.6-0.5l-0.4-0.4c-0.2-0.2-0.4-0.4-0.6-0.6s-0.3-0.3-0.4-0.5
			l-0.4-0.6c-0.1-0.2-0.3-0.4-0.4-0.6l-0.3-0.5c-0.2-0.3-0.3-0.5-0.4-0.8s-0.1-0.3-0.2-0.4c-0.2-0.3-0.3-0.7-0.4-1.1
			c0-0.1,0-0.1-0.1-0.2v-0.1c-0.1-0.4-0.2-0.7-0.3-1.1c0-0.1-0.1-0.2-0.1-0.3c-0.1-0.3-0.1-0.6-0.2-0.9l-0.1-0.6v-3
			c0-0.2,0-0.5,0.1-0.7c0-0.2,0.1-0.5,0.1-0.7c0-0.3,0.1-0.6,0.2-0.8c0.1-0.3,0.1-0.4,0.1-0.5c0.1-0.3,0.2-0.6,0.3-0.9
			c0-0.2,0.1-0.3,0.2-0.4c0.1-0.3,0.2-0.6,0.4-0.9l0.2-0.4c0.2-0.3,0.3-0.6,0.5-0.8l0.3-0.4l0.5-0.7l0.3-0.5
			c0.2-0.2,0.3-0.4,0.5-0.6s0.3-0.3,0.4-0.5l0.5-0.5c0.2-0.2,0.3-0.3,0.5-0.5l0.6-0.5l0.5-0.4l0.7-0.4l0.5-0.3l0.7-0.4l0.4-0.2
			c0.3-0.1,0.7-0.3,1-0.4l0.3-0.1h0.1c0.3-0.1,0.7-0.2,1-0.3l0.4-0.1c0.3-0.1,0.6-0.1,0.9-0.2l0.6-0.1c0.2,0,0.5,0,0.7-0.1h2.2
			c0.3,0,0.5,0,0.8,0.1l0.6,0.1c0.3,0,0.6,0.1,0.9,0.2l0.4,0.1l1,0.3l0.3,0.1l1,0.4l0.3,0.2c0.3,0.2,0.6,0.3,0.9,0.5l0.4,0.2
			l0.8,0.5l0.4,0.3l0.6,0.5l0.5,0.4l0.5,0.5l0.4,0.5c0.2,0.2,0.3,0.4,0.5,0.6l0.4,0.5c0.2,0.2,0.3,0.5,0.5,0.7l0.3,0.5
			c0.2,0.3,0.3,0.6,0.5,0.9l0.2,0.3c0.2,0.4,0.3,0.8,0.5,1.2c0,0,0,0.1,0,0.2l0,0c0.1,0.4,0.2,0.8,0.3,1.2c0,0.1,0.1,0.2,0.1,0.3
			c0.1,0.3,0.1,0.6,0.2,1c0,0.2,0,0.4,0.1,0.5c0,0.2,0,0.5,0.1,0.7c0,0.3,0,0.5,0,0.8L148.1,622.7L148.1,622.7z"/>
		<path class="st4" d="M335.7,70c0.2-0.1,0.5-0.2,0.7-0.2c25.8-9.8,23.3,80.8,23.5,90s-12.1,15.3-17.8,16.6
			c-22,0-64.9-15.6-73.3-22.6c-0.8-0.7-1.6-1.5-2.3-2.3c-6.8-7.9-13.4-24.7-13.4-24.7c5.4-0.6,0.2-7.6,6.6-12
			c-6.8-1.2-11-16.6-11-16.6c-1.4-1.9-4.2-14.1,3.9-14.6s12.7,16.8,16.1,23.3s8.3-2.3,7.8-6.1S262.4,78,264.2,75.3
			c6.8-10.2,24.8-2.2,31-2c12.9,0.5,37.9-3.1,40.9-3.6C336,69.8,335.8,69.9,335.7,70z"/>
		<path class="st5" d="M410,321.8c-5.6,54.4-42.2,239.8-42.1,245.2c-0.9-0.6-2.1-0.8-3.1-0.5c-57.7,14.6-141.1,5.2-141.1,5.2
			c-7.6-8.9-31-195.4-32.4-188.2c-10.3,54.8-58.9,118.9-58.9,118.9c-8.9,1.6-17.9,2.6-26.9,3c-9.4,0.4-18-0.2-21.7-2.3
			c-2.4-20.2-3.7-39.4-3-55c3-66.6,50.1-213,67.6-228.7c17.2-15.5,91.9-33.7,113.1-25.9c0.3,0.1,0.6,0.2,0.9,0.4l0.2,0.9
			c2.4,0.7,0.4-0.1,3.9,1.6c24.9,11.6,55.5,3.4,75.5-1.9c8.6-2.3,15.3-4.1,18.5-3.5c10.5,1.9,9.2,1.7,10.5,1.9
			c10.2,2.2,27.5,16.7,52.3,30.5c35.9,19.9,95.6,129.4,114.8,137c-8.9,16-22.6,37.7-19.7,47.4l-0.1,0.1
			c-35.4-27.8-79.2-70.6-98.2-89.5c-2.3-2.3-6-2.3-8.4,0C410.7,319.1,410.1,320.4,410,321.8L410,321.8z"/>
		<path class="st4" d="M142.6,658.3c-0.5,6.9,28.2,29.3,21.3,39.8c-1,1.5-1.5,2.8-2.6,4c-3.2,3.1-9.7-1.5-13.7-1.7
			c-20-0.9-0.4,2.8-6.4,8c-10.8,9.4-19.1,12.4-26.2,11.2c-2.2-0.4-1.4-1.6-3.1-5.5c-3.8-8.8,2-49.9,0.4-59.8
			c-1.2-7.6-21-85.3-28.8-151.3c3.8,2.1,12.3,2.7,21.7,2.3c9-0.4,18-1.4,26.9-3C137.8,511,142.6,658.3,142.6,658.3z"/>
		<path class="st6" d="M266.4,196.1c-3.5-1.6-1.5-0.8-3.9-1.6l-0.2-0.9c-0.3-0.1-0.6-0.3-0.9-0.4l0.2-0.5l9.1-41.3
			c0.7,0.8,1.4,1.6,2.2,2.3c8,7,49.1,22.6,70.1,22.6c-5.4,1.3-1.1,16.4-1.1,16.4v1.4C322,199.6,291.3,207.8,266.4,196.1z"/>
		<path class="st7" d="M364.1,1.2c13.1-9.2,16.9,38.5,15.1,48c-1.2,6.9-22.7,14.7-29.5,21.3c-2,2-11,6-13,7
			c-2.9,0.5-26.8,4.1-39.1,3.6c-5.9-0.2-21.3-7.7-27.8,2.6c-1.8,2.8,10.1,20.4,9.9,25c-0.2,3.8-2.7,11.6-7.5,6.1
			c-4.2-4.8-7.7-23.8-15.4-23.3s-5.1,12.7-3.7,14.6c0,0,7.9,12.7,12.2,15.2c-6.1,4.4-2.8,12.8-7.9,13.4
			c-27.5-2.7-35.6-19.9-36.9-24.3s-4.1-15.4,2.6-18.1s-2.1-8.4-8.8-21.7s14.2-25.8,29.9-20.4s17.9-26.4,31.5-31.3s45.7,6,54.7,5.1
			C339.9,23,351,10.4,364.1,1.2z"/>
		<path class="st4" d="M554.9,227.9c0,0-36-68.9-15.4-46.9s20.2-50,36-49.8c21.9,0.4,20.2,61.1,20.2,61.1c-0.4,0.9-0.4,2.5-1.5,13.5
			c-1,10.2-11.5,9.9-14.5,23.8c-4,18.1,6.1,187.6-12.2,202.6c-6.6,5.4-26.2-6.4-49.3-24.6l0.1-0.1c-2.9-9.6,10.8-31.3,19.7-47.4
			c0.6,0.3,1.3,0.4,1.9,0.4C551.6,360.6,554.9,227.9,554.9,227.9z"/>
		<path class="st8" d="M223.6,571.6c0,0,83.5,9.5,141.1-5.2c1.1-0.3,2.2-0.1,3.1,0.5c34.8,19.4,54.4,504.1,54.4,504.1
			s-12,3.7-20,4.6c-9.7,1-19.1-5.5-19.1-5.5l-1.2-5.6l-81.8-389.4c-7.3,15.5-21.1,404.2-21.1,404.2c-2-0.6-23.9,0.6-27.6,3.7l0,0
			l-0.3-0.7l-3.7-9.9c-24.8-66.8-39.3-458.2-36.5-475.5C212.7,587.5,217.1,578.7,223.6,571.6z"/>
		<path class="st9" d="M128.7,608.4l-0.3,0.1l0.4-0.2L128.7,608.4z"/>
		<path class="st9" d="M119.5,627c0,0.1,0.1,0.1,0.1,0.2C119.6,627.1,119.6,627,119.5,627L119.5,627z"/>
		<path class="st9" d="M138.1,636.2l0.4-0.1c-0.2,0.1-0.3,0.1-0.5,0.2L138.1,636.2z"/>
		<path class="st9" d="M147.3,617.6c0,0,0-0.1,0-0.2C147.3,617.4,147.3,617.5,147.3,617.6C147.5,617.7,147.3,617.6,147.3,617.6z"/>
		<path class="st3" d="M265.1,623.2l-27.7-81.7c-6.2-18.4-26.2-28.2-44.6-22c0,0,0,0,0,0l-33.2,11.3c5.7,7.4,10.4,15.4,14.1,24
			c17.8,41.2,15.4,87.3,14.4,131.6l55-18.7C261.5,661.5,271.3,641.6,265.1,623.2z"/>
		<path class="st10" d="M1533.1,313.4c5.5-1.3,11,2,12.3,7.5c0.5,2,0.4,4.1-0.3,6l-92.4,250l-56,4.6l62.4,291.8c0,0,22.5,1,39.1,1
			s20.4,15.4,20.4,15.4h-135.5c-12,0,13.5-14.7,13.5-14.7l49.2,0.8c0,0-61-284.3-68.4-292.6s-76.4,3.9-76.4,3.9l0.3-13.6l84.8-9.4
			h0.3c12.1-1,20-1.8,21.4-2.4l32-3.5L1533.1,313.4z"/>
		<path class="st11" d="M1449.3,507.4c1.1,28.9-34.1,51.2-41.3,54.3l-21.4,2.4h-0.3c-58,4.5-211.2,11.4-211.2,7.5l-34.3,49.7
			l-22.2,32.1l-68.2,98.9l-15.4,22.4l-17.1,24.8L990,783.3l44.9-89l18.1-35.9l35.3-69.9l35.3-69.9c7.5-14.8,22.1-24.8,38.6-26.5
			l242.4-24.1l34.8-3.5c2.4-0.2,4.6,0.9,5.8,3l0,0c0.4,0.6,0.6,1.3,0.7,2C1447.8,482.1,1448.9,494.7,1449.3,507.4z"/>
		<path class="st3" d="M1432.9,403.9l12.3,63.6c-1.2-2.1-3.4-3.2-5.8-3l-34.8,3.5l-0.2-1.6l-72.7,0.3c-3.1-6-18-40.1-18-40.1
			c42.8,0,79.2,0,97.4-0.1c7.5,0,14.2-4.5,17.1-11.3L1432.9,403.9z M1430.9,464.6L1430.9,464.6l-1-1l0,0L1430.9,464.6z"/>
		<path class="st3" d="M1409.1,280.4l23.8,123.5l-127.3-0.3v-0.1l-1.9-4.7l0,0c14.5-12,85.8-70.9,87.4-75.8
			c5.6-17.2-23.4-53.9-38-38.1s-71.7,84.7-79.9,87.2l-1,0.3c-3.4-0.2-9.1-9.3-15.8-18.6c-7.4-10.3-3.7-34-3.7-34l-10.6,8.3
			c3.1-23.5-19.4-42-40.7-42l-0.3-0.3l26.3-27.5c7.6-8,17.8-13.1,28.8-14.6l31.4-4.1c5,8.4,26.4,47.7,52.5-4.2h14.4
			C1381.1,235.4,1404,254.2,1409.1,280.4z"/>
		<path class="st10" d="M1432.9,403.9l-4.7,11.2c-2.9,6.9-9.6,11.3-17.1,11.3c-18.1,0-54.6,0-97.4,0.1c-104.9,0-248.2,0.1-254.5,0.1
			c-9.9,0-7.1,7.2-7.1,7.2l0.2,72.1l0.6,152.5l-18.1,35.9V424.4c0,0-251.5,2.4-270.7,2.1s-27.6-24-27.6-24l255.6,0.5l284.6,0.6h28.9
			L1432.9,403.9z"/>
		<path class="st12" d="M1430.9,464.5L1430.9,464.5l-1-1l0,0L1430.9,464.5z"/>
		<path class="st13" d="M1331.8,466.6l72.7-0.3l0.2,1.6l-242.4,24.1c-16.6,1.6-31.1,11.6-38.6,26.5l-35.3,69.9l-1.2-0.6
			c0,0-4.2-7.4-26.8-61.3c-3.3-7.9-4.7-14.8-4.7-20.7c0-34.6,48-38.4,48-38.4L1331.8,466.6z"/>
		<path class="st6" d="M1114.8,393.4v-2.6h-29.6c-1.6-1.5-3.8-4.9-2.7-12c0.5-2.7,3.5-4.9,7.8-6.7l0,0c12.3-5,34.4-6.5,34.4-6.5
			c25.8-1.2,41.8,16,41.8,16l8.5,3.1c0,0,84.2-9.6,97.1-12.4c0.4,0,0.7-0.1,1-0.3c8.2-2.4,65.3-71.3,79.9-87.2s43.5,20.9,38,38.1
			c-1.6,4.9-72.8,63.8-87.4,75.8c-1.7,1.4-2.6,2.1-2.6,2.1l-24.4,2.6l0,0l-284.6-0.6v-0.3h122.6L1114.8,393.4z"/>
		<path class="st14" d="M1346.4,104c0.9,15-5.1,75.5-26.3,82.7c-2-13.6-2.5-25.6,0.8-29c8.8-9.2,13.1-31.9,3.5-36.5
			s-17.4,8.6-17.4,8.6s-18.5-30.4-35.1-25.2s-34.6,12-34.6,12s1.3-15.1-4.2-2.4s-3,27.7-0.9,37.7c-13-34.8-30.7-28.5,4.3-72.1
			S1345.4,88.6,1346.4,104z"/>
		<path class="st4" d="M1320.1,186.6c3.2,22.2,10.2,48.7,10.2,48.7h9.7c-26.1,51.9-47.4,12.7-52.5,4.2l0.5-37.3c0,0,4.8-13-18.6-5.1
			s-35.2-35.1-37.4-45.2s-4.6-25,0.9-37.7s4.2,2.4,4.2,2.4s18-6.9,34.6-12s35.2,25.1,35.2,25.1s7.8-13.2,17.4-8.6s5.3,27.3-3.5,36.5
			C1317.5,161.1,1318.1,173.1,1320.1,186.6z"/>
		<path class="st14" d="M1251.2,870.1c5.6,17.1-8.2,21.3-8.2,21.3s-88.3-0.2-106.5-0.2s-6.4-8.5-3.5-11.7s74.6-29.6,74.6-29.6
			s27.3-11.5,32.7-4.1l1.7-0.2C1245.9,855.5,1249.4,864.7,1251.2,870.1z"/>
		<path class="st6" d="M1201.4,286.1c21.3,0,43.8,18.5,40.7,42l-75.6,53.6c0,0-16-17.2-41.8-16l76.4-79.9L1201.4,286.1z"/>
		<path class="st6" d="M1241.9,845.4l-1.7,0.2c-5.3-7.3-32.7,4.1-32.7,4.1l-19.3-38.3l-5.1-1.6c2.3-0.1,4.5-0.6,6.6-1.6l32.2-11.8
			C1222,796.5,1233.1,823.2,1241.9,845.4z"/>
		<path class="st14" d="M1224.3,791.1c0.9,2.1-0.1,4.4-2.1,5.3c0,0,0,0,0,0l0,0l-0.2,0.1l-32.2,11.7c-2.1,0.9-4.3,1.5-6.6,1.6
			c-3.2,0-5.1-1.7-7.5-3.9c-1-0.9-1.5-2.1-1.5-3.4c0-1.9,1.1-3.6,2.9-4.2l5.6-2.1l26-11.3c1.5-0.7,3-1.3,4.5-1.7
			c0.9-0.2,1.9-0.4,2.8-0.4C1220.9,782.9,1222.5,786.8,1224.3,791.1z"/>
		<path class="st13" d="M1213.2,783l0.1,0.3c-1.6,0.4-3.1,1-4.5,1.7l-26,11.3l-64.1-142.9l22.2-32.1L1213.2,783z"/>
		<path class="st3" d="M1114.8,393.4v9.2H992.2v-11.8h93c0.4,0.4,0.9,0.7,1.4,1C1086.6,391.9,1101.2,391.9,1114.8,393.4z"/>
		<path class="st3" d="M1114.8,390.9v2.6c-13.6-1.5-28.2-1.6-28.2-1.6c-0.5-0.3-1-0.6-1.4-1H1114.8z"/>
		<path class="st10" d="M1090.3,874.8c8.3,0,26.4,16.8,19,16.5s-121.9-0.8-121.9-0.8c2.9-3.6,5.3-7.7,7.1-11.9
			c0.4-0.9,0.6-1.9,0.6-2.9l1.7,0.1h38.1V774.6l15.5-22.3l0.9,0.6c0,0,1.3,64.9,1.3,97.1s7.8,24.8,7.8,24.8L1090.3,874.8z"/>
		<path class="st3" d="M1099.6,325.8c1.3,12.9-8,23.4-20.9,23.4H923l-3-13.3h-34.5l-3,13.3H731.4c-12.9,0-24.5-10.5-25.8-23.4
			l-20.9-199.5c-1.3-12.9,8-23.4,20.9-23.4h347.3c12.9,0,24.4,10.5,25.8,23.4L1099.6,325.8z M902.3,200.6c0-9.6-7.8-17.3-17.4-17.3
			c-9.6,0-17.3,7.8-17.3,17.4c0,9.6,7.8,17.3,17.3,17.3l0,0C894.5,218,902.3,210.3,902.3,200.6L902.3,200.6z"/>
		<path class="st6" d="M1085.1,390.9h-57.2c0,0-15.3,0-12-9.1s40.5-21.5,74.4-9.5c-4.3,1.8-7.4,4-7.8,6.7
			C1081.3,386,1083.5,389.4,1085.1,390.9z"/>
		<path class="st14" d="M1018.5,799.8c2.7,1.6,3.6,5,2,7.7l-0.2,0.3l-0.2,0.4c-2,3-5.9,4.2-9.2,2.9c-0.3-0.1-0.6-0.2-0.9-0.4
			l-27.3-14.4l-1.9-1c-3.3-1.8-4.6-5.9-2.9-9.2l0.1-0.2c1.5-2.8,4.7-4.3,7.8-3.6l4.3,1l27.9,16.1L1018.5,799.8z"/>
		<path class="st15" d="M1010.8,811.1l-0.1,0.4L987,849.8h-3.5c-0.6-0.2-1.2-0.3-1.9-0.3l-26.7-1.5l27.7-51.7l27.4,14.4
			C1010.3,810.8,1010.6,811,1010.8,811.1z"/>
		<path class="st14" d="M989.4,854.9c2.5,5.7,6.1,14.9,5.7,20.9c0,1-0.2,2-0.6,2.9c-1.8,4.3-4.2,8.3-7.1,11.9
			c0,0-92.9,0.5-106.9,0.8s-3.3-11.1-3.3-11.1l77.8-32.2l26.7,1.4c0.6,0,1.3,0.1,1.9,0.3C986.1,850.4,988.3,852.3,989.4,854.9z"/>
		<polygon class="st3" points="982.6,390.4 982.6,400.7 824,400.7 824,389.4 874.7,383.5 882.5,349.2 923,349.2 931.3,385.9 		"/>
		<polygon class="st3" points="923,349.2 882.5,349.2 885.5,335.9 920,335.9 		"/>
		<circle class="st16" cx="884.9" cy="200.6" r="17.3"/>
		<circle class="st14" cx="1314.9" cy="61.4" r="25.1"/>
	</g>
</g>
</svg>
