<svg xmlns="http://www.w3.org/2000/svg" viewBox="0 0 41.08 38.92"><defs><style>.cls-1{fill:none;stroke:#231916;stroke-miterlimit:10;}</style></defs><title>アセット 23</title><g id="レイヤー_2" data-name="レイヤー 2"><g id="レイヤー_1-2" data-name="レイヤー 1"><path class="cls-1" d="M40.55,20.48q0-.51,0-1t0-1c-1-.15-2.07-.3-3-.47a16.45,16.45,0,0,0-.36-2.1C38,15.45,39,15,39.9,14.56a17.93,17.93,0,0,0-.66-1.91c-1,.15-2.07.32-3,.42a15.83,15.83,0,0,0-1-1.89c.63-.63,1.4-1.35,2.12-2A18,18,0,0,0,36.1,7.52c-.92.44-1.87.9-2.7,1.27A16,16,0,0,0,31.81,7.3c.39-.79.89-1.69,1.35-2.56-.55-.42-1.12-.82-1.72-1.19-.73.69-1.48,1.42-2.15,2a18.5,18.5,0,0,0-2-1c.12-.86.29-1.86.45-2.81-.66-.24-1.33-.45-2-.63-.47.86-.95,1.78-1.39,2.54a17.71,17.71,0,0,0-2.22-.34c-.17-.85-.33-1.86-.49-2.81q-.54,0-1.08,0t-1.08,0c-.16,1-.32,2-.49,2.81a17.71,17.71,0,0,0-2.22.34c-.44-.76-.93-1.68-1.39-2.54-.69.18-1.36.39-2,.63.16,1,.33,2,.45,2.81a18.5,18.5,0,0,0-2,1c-.67-.59-1.42-1.32-2.15-2-.6.37-1.17.77-1.72,1.19.46.87,1,1.77,1.35,2.56A16,16,0,0,0,7.68,8.79C6.85,8.42,5.9,8,5,7.52A18,18,0,0,0,3.73,9.15c.72.68,1.49,1.4,2.12,2a15.83,15.83,0,0,0-1,1.89c-.91-.11-2-.27-3-.42a17.93,17.93,0,0,0-.66,1.91c.91.44,1.88.89,2.68,1.31A16.45,16.45,0,0,0,3.5,18c-.9.17-2,.32-3,.47q0,.51,0,1t0,1c1,.16,2.07.31,3,.47a16.45,16.45,0,0,0,.36,2.1c-.8.42-1.77.87-2.68,1.31a16,16,0,0,0,.66,1.91c1-.14,2.06-.31,3-.42a15.83,15.83,0,0,0,1,1.89c-.63.63-1.4,1.35-2.12,2,.39.56.8,1.1,1.25,1.63.92-.44,1.87-.91,2.7-1.28a17.39,17.39,0,0,0,1.59,1.5c-.4.78-.89,1.69-1.36,2.55a20.4,20.4,0,0,0,1.73,1.19c.72-.68,1.48-1.41,2.15-2a16.1,16.1,0,0,0,2,1c-.12.86-.3,1.86-.45,2.82.66.24,1.33.44,2,.62.46-.86.95-1.78,1.39-2.54a16,16,0,0,0,2.22.34c.17.85.33,1.86.49,2.81l1.08,0,1.08,0c.16-1,.32-2,.49-2.81a16,16,0,0,0,2.22-.34c.44.76.92,1.68,1.39,2.54.69-.18,1.36-.38,2-.62-.16-1-.34-2-.45-2.82a16.82,16.82,0,0,0,2-1c.67.6,1.42,1.33,2.15,2a18.76,18.76,0,0,0,1.72-1.19c-.46-.86-1-1.77-1.35-2.55a18.79,18.79,0,0,0,1.59-1.5c.83.37,1.78.84,2.7,1.28a19.56,19.56,0,0,0,1.25-1.63c-.72-.69-1.49-1.41-2.12-2a15.83,15.83,0,0,0,1-1.89c.9.11,2,.28,3,.42a17.2,17.2,0,0,0,.66-1.91c-.91-.44-1.88-.89-2.68-1.31a16.45,16.45,0,0,0,.36-2.1C38.48,20.79,39.54,20.64,40.55,20.48Zm-20,3a4.16,4.16,0,0,1-4.28-4.05,4.16,4.16,0,0,1,4.28-4.05,4.16,4.16,0,0,1,4.28,4.05A4.16,4.16,0,0,1,20.54,23.51Z"/></g></g></svg>