<svg xmlns="http://www.w3.org/2000/svg" viewBox="0 0 392.15 392.15"><defs><style>.cls-1,.cls-2{fill:#fff;}.cls-2{stroke:#231916;stroke-miterlimit:10;stroke-width:4px;}</style></defs><title>アセット 36</title><g id="レイヤー_2" data-name="レイヤー 2"><g id="レイヤー_1-2" data-name="レイヤー 1"><rect class="cls-1" width="392.15" height="392.15"/><g id="レイヤー_1-2-2" data-name="レイヤー 1-2"><path class="cls-2" d="M238.41,87.28c0,45.41-16.59,138.1-16.59,138.1v127c0,.94-.82,1.86-2.29,2.68-4.75,2.68-16.39,4.57-30,4.57s-25.22-1.89-30-4.57c-1.47-.82-2.29-1.74-2.29-2.68v-127S140.71,132.7,140.71,87.28s8.58-44.42,8.58-44.42h80.55S238.41,41.88,238.41,87.28Z"/><path class="cls-2" d="M159.58,355.08h-.09a2.25,2.25,0,0,1-2.2-2.3v-.38C157.29,353.34,158.09,354.26,159.58,355.08Z"/><path class="cls-2" d="M221.82,352.4v1.49a1.16,1.16,0,0,1-1.14,1.19h-1.15C221,354.26,221.82,353.34,221.82,352.4Z"/><ellipse class="cls-2" cx="188.78" cy="43.94" rx="42.33" ry="9.31"/></g></g></g></svg>